<svg xmlns="http://www.w3.org/2000/svg" xmlns:xlink="http://www.w3.org/1999/xlink" width="500" zoomAndPan="magnify" viewBox="0 0 375 374.999991" height="500" preserveAspectRatio="xMidYMid meet" version="1.0"><defs><g/></defs><g fill="#000000" fill-opacity="1"><g transform="translate(38.348871, 201.625168)"><g><path d="M 27.71875 -13.125 C 27.671875 -14.328125 26.6875 -13.296875 26.359375 -12.859375 C 25.65625 -11.8125 25 -10.734375 24.34375 -9.703125 C 22.875 -7.46875 21.40625 -5.234375 19.71875 -3.109375 C 14.109375 3.8125 18.03125 -8.5 17.59375 -8.390625 C 17.375 -8.328125 17.21875 -7.515625 17.15625 -7.359375 C 17.59375 -9.3125 18.40625 -11.65625 19.4375 -13.5625 C 20.046875 -14.765625 20.75 -15.734375 19.65625 -17.046875 C 17.640625 -19.5 15.3125 -17.265625 14 -15.578125 C 13.453125 -17.640625 12.359375 -20.703125 9.703125 -20.703125 C 8.5 -20.703125 7.78125 -20.09375 6.96875 -19.390625 C 6.484375 -19.0625 6.09375 -19.015625 5.671875 -18.625 C 4.953125 -18.140625 4.46875 -17.375 3.96875 -16.71875 C 2.125 -14 0.8125 -10.5625 0.21875 -7.40625 C -0.046875 -5.875 -0.15625 -4.1875 0.265625 -2.671875 C 0.546875 -1.796875 1.53125 0.15625 2.78125 0 C 2.828125 0 2.71875 -0.046875 2.5625 -0.15625 C 3.328125 0.046875 4.1875 -0.046875 4.84375 -0.484375 C 4.90625 -0.375 4.25 -0.109375 4.25 -0.109375 C 4.84375 0.8125 9.3125 -4.578125 9.640625 -5.0625 C 10.34375 -6.046875 10.84375 -7.078125 11.5 -8.109375 C 11.984375 -8.875 12.75 -9.859375 13.296875 -10.671875 C 13.234375 -10.296875 13.234375 -9.796875 13.234375 -9.796875 C 12.25 -6.703125 11.328125 -3.328125 12.640625 -0.109375 C 13.234375 1.53125 14.703125 3.046875 16.5625 2.71875 C 18.1875 2.453125 19.546875 0.875 20.53125 -0.375 C 21.734375 -1.796875 22.765625 -3.375 23.796875 -5.015625 C 24.671875 -6.484375 25.484375 -7.953125 26.203125 -9.59375 C 26.640625 -10.625 27.828125 -11.875 27.71875 -13.125 Z M 12.09375 -12.75 C 11.8125 -12.359375 11.546875 -11.984375 11.328125 -11.609375 L 9.90625 -9.59375 C 8.984375 -8.21875 8 -6.921875 6.96875 -5.671875 C 6.703125 -5.28125 5.390625 -3.59375 4.84375 -3.765625 C 4.03125 -4.03125 4.90625 -6.859375 5.015625 -7.296875 C 5.171875 -8.0625 8.0625 -16.453125 8.828125 -16.609375 C 7.84375 -16.671875 4.6875 -6.8125 4.515625 -5.984375 C 4.953125 -8.65625 5.9375 -11.28125 7.03125 -13.71875 C 7.625 -14.984375 8.984375 -18.296875 10.78125 -18.296875 C 11.765625 -18.296875 11.984375 -16.28125 12.140625 -15.625 C 12.09375 -15.734375 11.609375 -17.328125 11.546875 -17.265625 C 11.28125 -17.046875 12.359375 -14.046875 12.359375 -13.609375 C 12.359375 -13.1875 12.359375 -13.1875 12.09375 -12.75 Z M 13.34375 -10.078125 C 13.34375 -10.078125 13.515625 -10.84375 13.5625 -11 L 13.828125 -11.390625 Z M 12.53125 -13.453125 L 12.53125 -14 C 12.6875 -13.78125 12.6875 -13.609375 12.53125 -13.453125 Z M 12.53125 -13.453125 "/></g></g><g transform="translate(62.094939, 201.625168)"><g><path d="M 32.1875 -13.296875 L 32.1875 -13.34375 C 31.859375 -15.140625 29.40625 -12.140625 29.09375 -11.875 C 27.5 -10.125 26.03125 -8.21875 24.625 -6.3125 C 23.203125 -4.359375 21.84375 -2.390625 20.375 -0.4375 C 19.65625 0.546875 18.953125 1.46875 18.140625 2.34375 C 17.859375 2.671875 17.21875 3.59375 16.71875 3.59375 C 14.8125 3.59375 16.28125 -4.078125 16.5 -5.28125 C 16.828125 -7.40625 17 -10.234375 18.359375 -11.921875 C 18.6875 -12.359375 22.390625 -17.109375 22.390625 -17.109375 C 22.28125 -17.15625 21.84375 -16.609375 21.5625 -16.28125 L 23.90625 -19.4375 L 24.078125 -19.65625 L 24.125 -19.65625 L 24.078125 -19.65625 L 24.515625 -20.265625 C 24.5625 -20.203125 24.515625 -20.09375 24.453125 -19.984375 L 24.953125 -20.53125 L 26.359375 -22.390625 C 27.390625 -23.859375 28.375 -25.4375 29.296875 -26.96875 C 30.78125 -29.46875 32.796875 -33.0625 31.703125 -36.109375 C 30.890625 -38.34375 27.890625 -38.78125 25.875 -38.015625 C 24.40625 -37.46875 23.15625 -36.328125 22.109375 -35.125 C 21.5625 -34.421875 21.03125 -33.65625 20.53125 -32.84375 C 20.375 -32.625 19.65625 -30.890625 19.5 -30.671875 L 19.546875 -30.671875 C 19.234375 -30.0625 18.90625 -29.46875 18.6875 -28.875 C 18.796875 -29.296875 19.0625 -30.171875 19.28125 -30.34375 C 18.84375 -30.015625 18.46875 -28.4375 18.359375 -28.265625 C 16.28125 -23.75 14.484375 -19.171875 13.1875 -14.375 C 11.703125 -16.0625 9.375 -18.953125 6.8125 -17.921875 C 4.6875 -17.046875 3.109375 -14.8125 2.015625 -12.859375 C 1.03125 -11.109375 0.765625 -9.3125 0.046875 -7.625 C -1.203125 -4.734375 -1.796875 1.203125 2.453125 2.0625 C 3.765625 2.34375 4.953125 1.53125 5.984375 0.8125 C 7.84375 -0.546875 9.59375 -2.125 11.21875 -3.765625 C 10.953125 -0.875 10.34375 3.484375 12.6875 5.78125 C 15.578125 8.71875 18.46875 4.734375 20.203125 2.5625 C 22.4375 -0.265625 24.1875 -3.4375 26.421875 -6.15625 C 27.5 -7.46875 28.59375 -8.765625 29.734375 -9.96875 C 30.609375 -10.84375 32.359375 -11.921875 32.1875 -13.296875 Z M 12.140625 -9.703125 C 12.09375 -9.53125 12.09375 -9.421875 12.09375 -9.421875 C 11.875 -8.109375 11.875 -6.96875 10.953125 -6.046875 C 10.125 -5.171875 9.265625 -4.359375 8.390625 -3.546875 C 7.578125 -2.78125 5.609375 -0.546875 4.359375 -0.65625 C 2.828125 -0.8125 3.96875 -4.296875 4.734375 -6.421875 C 3.921875 -4.25 2.609375 -0.703125 4.40625 -0.59375 C 4.90625 -0.546875 5.71875 -0.984375 6.421875 -1.578125 C 5.78125 -0.984375 4.6875 -0.15625 4.03125 -0.484375 C 2.78125 -1.03125 3.875 -4.140625 4.078125 -5.015625 C 4.796875 -7.515625 5.828125 -9.90625 7.03125 -12.203125 C 7.625 -13.34375 8.5 -15.203125 9.640625 -15.3125 L 9.375 -15.140625 C 9.421875 -15.203125 9.484375 -15.203125 9.53125 -15.203125 C 9.90625 -15.3125 10.296875 -15.03125 10.5625 -14.8125 C 11.28125 -14.328125 11.703125 -13.40625 12.203125 -12.6875 C 12.75 -11.8125 12.359375 -10.890625 12.140625 -9.90625 Z M 20.921875 -22.28125 C 20.921875 -22.328125 20.921875 -22.4375 20.96875 -22.5 L 20.96875 -22.546875 C 21.03125 -22.71875 21.078125 -22.765625 21.078125 -22.765625 L 21.078125 -22.828125 C 22.328125 -26.3125 23.6875 -29.796875 25.65625 -32.953125 C 26.140625 -33.765625 27.5625 -36.28125 28.8125 -35.5625 C 29.296875 -35.296875 29.40625 -34.59375 29.40625 -34.09375 C 29.625 -30.828125 27.015625 -26.96875 25.375 -24.34375 C 23.46875 -21.296875 21.359375 -18.296875 19.125 -15.53125 L 20.3125 -16.78125 L 21.40625 -18.140625 L 18.625 -14.546875 L 18.25 -14.046875 L 18.03125 -13.828125 C 18.078125 -14.15625 18.359375 -14.484375 18.625 -14.875 C 18.515625 -14.765625 18.40625 -14.65625 18.359375 -14.546875 C 19.0625 -16.890625 19.828125 -19.234375 20.640625 -21.5625 C 20.59375 -21.515625 20.640625 -21.625 20.703125 -21.84375 L 20.859375 -22.109375 C 20.859375 -22.171875 20.859375 -22.21875 20.921875 -22.28125 Z M 16.34375 -17.8125 C 16.234375 -17.53125 15.90625 -16.28125 15.734375 -16.125 C 15.734375 -16.0625 15.6875 -16.015625 15.625 -16.015625 C 16.0625 -16.5625 15.796875 -17.265625 16.015625 -17.921875 C 16.125 -18.25 16.671875 -18.84375 16.78125 -19.28125 C 16.78125 -18.84375 16.5 -18.078125 16.34375 -17.8125 Z M 7.6875 -2.71875 C 9.046875 -3.921875 10.34375 -5.171875 11.609375 -6.484375 C 11.5 -5.78125 9.796875 -4.578125 9.203125 -4.03125 C 8.5 -3.328125 7.6875 -2.609375 6.859375 -1.953125 L 6.8125 -1.953125 Z M 17.328125 -22.765625 C 17.109375 -22.109375 16.828125 -21.515625 16.5 -20.921875 C 16.78125 -21.734375 16.9375 -22.546875 17.328125 -23.3125 C 17.640625 -23.90625 18.03125 -24.671875 18.296875 -25.375 C 18.03125 -24.515625 17.59375 -23.578125 17.328125 -22.765625 Z M 20.859375 -22.109375 L 20.640625 -21.5625 C 20.640625 -21.625 20.703125 -21.734375 20.703125 -21.84375 Z M 9.09375 -14.921875 C 8.875 -14.765625 8.71875 -14.546875 8.65625 -14.546875 C 8.765625 -14.546875 8.9375 -14.765625 9.09375 -14.921875 Z M 10.625 -15.03125 C 10.734375 -14.984375 10.84375 -14.921875 10.953125 -14.8125 Z M 21.40625 -16.015625 C 21.40625 -16.0625 21.453125 -16.125 21.515625 -16.171875 C 21.453125 -16.0625 21.40625 -16.015625 21.40625 -16.015625 Z M 21.515625 -16.171875 L 21.5625 -16.28125 C 21.5625 -16.234375 21.515625 -16.171875 21.515625 -16.171875 Z M 21.515625 -16.171875 "/></g></g><g transform="translate(90.307011, 201.625168)"><g><path d="M 14.265625 -13.40625 C 14.15625 -14.109375 13.40625 -13.890625 13.015625 -13.609375 C 12.53125 -13.296875 9.796875 -9.703125 10.015625 -9.421875 C 10.1875 -9.421875 10.296875 -9.421875 10.40625 -9.53125 C 9.640625 -8.609375 8.21875 -7.578125 7.1875 -6.75 C 6.59375 -6.265625 5.125 -4.90625 4.25 -5.34375 C 2.390625 -6.265625 6.15625 -12.796875 5.984375 -12.859375 C 5.828125 -12.90625 4.46875 -9.859375 4.1875 -9.15625 C 4.84375 -11.0625 5.71875 -12.96875 6.75 -14.65625 C 6.703125 -14.484375 6.53125 -14.21875 6.640625 -14.21875 C 6.75 -14.15625 7.578125 -15.3125 7.40625 -15.421875 C 7.359375 -15.421875 7.25 -15.421875 7.1875 -15.359375 C 7.359375 -15.53125 7.625 -15.578125 7.625 -15.90625 C 7.625 -16.453125 6.375 -17 5.9375 -17.15625 C 4.90625 -17.59375 3.875 -17.703125 3.046875 -17.15625 C 1.953125 -16.5 1.75 -15.203125 1.3125 -14.046875 C 1.203125 -13.71875 0.15625 -9.859375 0.375 -9.796875 C 0.484375 -9.859375 0.484375 -9.90625 0.546875 -10.015625 L 0.375 -9.046875 C 0.328125 -9.046875 0.4375 -9.3125 0.328125 -9.3125 C -0.109375 -9.3125 0 -7.359375 0.046875 -7.078125 C 0.265625 -6.09375 1.03125 -5.390625 1.640625 -4.578125 C 1.953125 -4.078125 2.28125 -3.59375 2.78125 -3.265625 C 3.4375 -2.78125 3 -3.265625 3.4375 -3.046875 L 3.328125 -3.046875 C 3.265625 -2.71875 5.34375 -2.171875 5.78125 -2.234375 C 7.6875 -2.671875 9.046875 -5.015625 10.125 -6.484375 C 11.171875 -7.78125 12.03125 -9.09375 12.96875 -10.453125 C 13.515625 -11.171875 14.484375 -12.359375 14.265625 -13.40625 Z M 4.734375 -20.265625 C 4.84375 -20.09375 4.6875 -19.875 5.0625 -19.65625 C 5.453125 -19.5 5.671875 -19.71875 5.984375 -19.828125 C 6.640625 -20.09375 7.140625 -20.8125 7.625 -21.25 C 7.78125 -21.359375 7.46875 -21.296875 7.46875 -21.296875 C 8.171875 -21.953125 7.578125 -21.1875 8.21875 -21.5625 C 8.875 -22 8.984375 -22.71875 9.53125 -23.3125 C 8.875 -23.046875 8.390625 -22.65625 7.953125 -22.109375 C 7.40625 -21.40625 7.03125 -21.078125 6.421875 -20.703125 C 7.078125 -21.1875 7.40625 -21.671875 7.953125 -22.546875 C 8.109375 -22.71875 8.28125 -22.828125 8.5 -22.9375 C 8.328125 -23.09375 8.328125 -23.265625 8.546875 -23.421875 C 8.71875 -23.6875 9.046875 -23.796875 9.203125 -24.078125 C 9.484375 -24.453125 9.421875 -24.953125 9.75 -25.328125 C 10.015625 -25.546875 10.40625 -25.703125 10.625 -25.921875 C 11.109375 -26.359375 11.65625 -27.1875 11.4375 -27.890625 C 11.21875 -28.546875 10.671875 -29.359375 10.078125 -29.734375 C 9.375 -30.125 8.390625 -30.28125 7.625 -29.953125 C 7.46875 -29.90625 6.8125 -29.734375 7.03125 -29.515625 C 7.078125 -29.40625 7.140625 -29.40625 7.25 -29.40625 C 6.75 -29.03125 5.9375 -28.375 7.078125 -27.9375 C 6.96875 -27.828125 7.078125 -27.34375 7.078125 -27.28125 C 7.03125 -26.90625 6.265625 -24.890625 5.78125 -23.90625 L 6.421875 -24.890625 C 6.046875 -24.078125 5.609375 -23.3125 5.125 -22.65625 C 5.453125 -23.359375 4.796875 -22.546875 4.796875 -22.390625 C 4.1875 -22.65625 4.359375 -20.96875 4.40625 -20.8125 C 4.40625 -20.75 4.734375 -20.265625 4.734375 -20.265625 Z M 3.703125 -7.296875 L 3.703125 -7.25 L 3.59375 -6.921875 L 3.703125 -7.359375 C 3.765625 -7.40625 3.765625 -7.40625 3.703125 -7.296875 Z M 5.5 -23.46875 C 5.5 -23.46875 5.609375 -23.578125 5.71875 -23.796875 Z M 4.953125 -22.4375 C 4.953125 -22.390625 4.953125 -22.390625 4.90625 -22.328125 C 4.90625 -22.328125 4.90625 -22.390625 4.84375 -22.390625 C 4.90625 -22.390625 4.90625 -22.390625 4.953125 -22.4375 Z M 4.953125 -22.4375 "/></g></g><g transform="translate(100.600605, 201.625168)"><g><path d="M 21.78125 -13.890625 C 21.03125 -13.078125 20.53125 -11.703125 19.9375 -10.734375 C 19.015625 -9.15625 18.078125 -7.625 17.109375 -6.09375 C 15.25 -3.15625 13.40625 -0.15625 11.171875 2.5 C 10.234375 3.65625 8.28125 6.421875 6.421875 6.203125 C 5.0625 5.984375 5.0625 3.65625 5.0625 2.609375 C 5.0625 1.75 5.125 0.875 5.234375 0.046875 C 5.28125 -0.4375 5.71875 -2.0625 5.453125 -2.5 L 5.015625 -0.875 C 5.0625 -1.53125 5.171875 -2.234375 5.34375 -2.890625 C 5.28125 -3 5.78125 -4.515625 5.875 -5.015625 C 6.15625 -6.09375 6.421875 -7.1875 6.75 -8.28125 C 7.03125 -9.375 7.296875 -10.40625 7.625 -11.4375 C 7.890625 -12.421875 8.28125 -12.90625 8.875 -13.671875 C 11.328125 -16.71875 13.5625 -20.046875 15.625 -23.359375 C 16.390625 -24.625 16.890625 -25.703125 17.8125 -26.75 C 19.171875 -28.15625 20.09375 -30.28125 20.96875 -32.03125 C 22.4375 -34.859375 24.40625 -38.78125 24.078125 -42.109375 L 24.078125 -42.375 L 24.015625 -42.4375 C 23.6875 -44.5625 21.734375 -47.0625 19.34375 -46.296875 C 18.078125 -45.921875 17.15625 -44.609375 16.390625 -43.6875 L 15.140625 -42 C 14.875 -41.671875 14.484375 -40.84375 14.21875 -40.421875 L 14.265625 -40.46875 L 12.53125 -37.46875 L 12.96875 -38.40625 C 12.6875 -38.453125 11.5 -36.109375 11.328125 -35.84375 C 10.734375 -34.8125 10.1875 -33.765625 9.703125 -32.734375 C 8.609375 -30.5625 7.515625 -28.328125 6.8125 -25.984375 C 6.046875 -23.640625 5.171875 -21.359375 4.359375 -19.015625 C 3.921875 -17.75 3.484375 -16.453125 3.109375 -15.203125 C 2.78125 -14.15625 2.015625 -12.46875 2.171875 -11.390625 L 2.34375 -11.390625 C 2.171875 -11 2.0625 -10.625 1.953125 -10.234375 C 2.015625 -10.5625 2.015625 -10.953125 2.0625 -11.0625 C 1.796875 -10.671875 1.859375 -9.375 1.796875 -9.265625 C 1.09375 -6.3125 0.265625 -3.375 0.046875 -0.328125 C -0.109375 2.5625 -0.109375 6.375 2.171875 8.5 C 4.734375 10.84375 7.6875 9.265625 9.796875 7.25 C 12.3125 4.796875 14.4375 1.90625 16.390625 -0.921875 C 18.1875 -3.546875 19.609375 -6.3125 21.25 -8.9375 C 21.890625 -10.015625 22.609375 -11.109375 22.9375 -12.3125 C 23.15625 -13.1875 23.046875 -15.203125 21.78125 -13.890625 Z M 14.984375 -33.390625 C 16.0625 -36 17.15625 -38.671875 18.6875 -41.125 C 19.0625 -41.71875 21.515625 -44.984375 21.40625 -42.109375 L 21.40625 -42.046875 C 21.296875 -39 19.34375 -35.78125 18.03125 -33.171875 L 15.734375 -28.921875 C 14.984375 -27.609375 13.671875 -25.984375 13.234375 -24.5625 C 13.5625 -25.4375 14.546875 -26.6875 15.03125 -27.5 C 15.84375 -28.875 16.5625 -30.234375 17.328125 -31.59375 C 18.578125 -33.984375 19.9375 -36.5 20.859375 -39.109375 C 18.40625 -31.8125 13.828125 -25 9.796875 -18.515625 C 11.390625 -23.3125 12.96875 -28.546875 14.984375 -33.390625 Z M 13.234375 -37.203125 C 13.78125 -38.234375 14.765625 -39.109375 15.3125 -40.09375 C 14.15625 -37.796875 12.75 -35.734375 11.546875 -33.546875 C 11.546875 -33.609375 11.546875 -33.71875 11.609375 -33.765625 C 12.09375 -34.96875 12.640625 -36.0625 13.234375 -37.203125 Z M 2.9375 -9.046875 C 2.890625 -8.9375 2.890625 -8.875 2.890625 -8.875 C 2.234375 -7.359375 2.171875 -5.28125 1.859375 -3.65625 C 1.796875 -3.265625 1.6875 -2.9375 1.6875 -2.5625 L 1.6875 -2.71875 L 1.53125 -0.984375 C 1.640625 -2.9375 1.859375 -4.953125 2.234375 -6.859375 L 2.234375 -6.8125 C 2.390625 -8.0625 2.671875 -9.203125 2.890625 -9.203125 C 3 -9.265625 3 -9.09375 2.9375 -9.046875 Z M 2.9375 -9.046875 "/></g></g><g transform="translate(119.880669, 201.625168)"><g><path d="M 27.015625 -13.40625 C 26.75 -13.40625 26.359375 -12.859375 26.203125 -12.6875 C 25.4375 -11.921875 24.78125 -11.0625 24.125 -10.234375 C 22.328125 -8.171875 20.53125 -6.046875 18.578125 -4.140625 C 18.078125 -3.703125 16.828125 -2.234375 16.125 -2.71875 C 15.6875 -3 16.0625 -4.734375 16.125 -5.125 C 16.234375 -5.609375 17.21875 -8.171875 16.890625 -8.5 C 16.71875 -8.609375 16.453125 -7.78125 16.390625 -7.734375 C 17.265625 -10.78125 19.015625 -14.265625 20.421875 -17.265625 C 21.25 -18.90625 22.28125 -20.921875 20.921875 -22.609375 C 18.515625 -25.546875 15.53125 -21.78125 13.890625 -20.046875 C 13.1875 -19.28125 6.3125 -10.890625 6.421875 -10.84375 C 6.421875 -10.84375 6.921875 -11.4375 7.625 -12.25 C 6.59375 -10.890625 5.609375 -9.53125 4.6875 -8.109375 C 5.28125 -10.34375 5.9375 -12.53125 6.640625 -14.703125 C 7.03125 -15.796875 7.359375 -16.9375 7.734375 -18.078125 C 8.171875 -19.28125 8.5 -19.765625 9.421875 -20.640625 C 11 -22.0625 12.53125 -23.578125 13.9375 -25.21875 C 14.484375 -25.875 14.875 -26.640625 15.421875 -27.234375 C 15.90625 -27.71875 16.609375 -28.15625 17.15625 -28.765625 C 19.9375 -32.03125 22.171875 -36.109375 24.015625 -39.921875 C 24.84375 -41.71875 25.59375 -43.578125 26.140625 -45.484375 C 26.25 -45.921875 27.453125 -50.921875 27.1875 -50.921875 C 27.125 -50.921875 27.125 -50.875 27.078125 -50.765625 C 27.125 -51.640625 27.078125 -52.609375 26.75 -53.484375 C 26.796875 -53.484375 27.078125 -52.671875 27.078125 -52.671875 C 27.390625 -52.890625 26.421875 -54.578125 26.203125 -54.796875 C 25.703125 -55.28125 25 -55.5625 24.296875 -55.5625 C 22.875 -55.671875 21.5625 -54.90625 20.484375 -54.09375 C 18.40625 -52.5 16.9375 -50.171875 15.421875 -48.046875 C 14.546875 -46.84375 13.71875 -45.640625 12.96875 -44.390625 C 12.421875 -43.578125 11.21875 -42.109375 11.21875 -41.125 C 11.28125 -41.0625 11.328125 -41.0625 11.328125 -41.0625 L 10.671875 -39.8125 C 10.671875 -39.8125 11 -40.796875 11.0625 -40.84375 C 10.78125 -40.6875 10.515625 -39.546875 10.515625 -39.484375 C 8.390625 -35.34375 6.15625 -31.375 4.6875 -26.96875 C 3 -22 1.75 -16.890625 0.8125 -11.765625 C 0.375 -9.421875 -0.15625 -6.859375 0.046875 -4.46875 C 0.046875 -3.8125 0.109375 -3.046875 0.59375 -2.5 C 1.203125 -1.75 2.453125 -1.46875 3.15625 -2.234375 C 3.375 -2.5 3.375 -2.671875 3.484375 -2.9375 L 4.46875 -4.6875 C 5.78125 -6.703125 7.359375 -8.546875 8.609375 -10.625 C 8.765625 -10.953125 8.9375 -11.328125 9.15625 -11.609375 C 9.421875 -11.921875 9.53125 -11.765625 9.859375 -12.03125 C 10.78125 -12.796875 11.5 -13.9375 12.25 -14.875 C 13.828125 -16.828125 15.421875 -19.0625 17.4375 -20.703125 L 15.84375 -16.890625 L 16.015625 -17.046875 L 15.203125 -15.203125 C 15.140625 -15.25 15.359375 -15.734375 15.359375 -15.796875 C 15.140625 -15.796875 14.109375 -13.671875 14 -13.453125 C 13.34375 -12.140625 12.640625 -10.84375 12.25 -9.484375 C 11.921875 -8.171875 11.546875 -6.859375 11.171875 -5.5625 C 11 -4.734375 10.84375 -3.921875 10.890625 -3.109375 C 10.890625 -2.890625 11.328125 -0.921875 11.5 -1.09375 L 11.5 -1.3125 C 11.609375 -0.984375 11.703125 -0.703125 11.875 -0.4375 L 11.546875 -0.921875 C 11.390625 -0.546875 12.859375 0.703125 13.015625 0.875 C 13.828125 1.6875 14.65625 2.234375 15.90625 2.28125 C 16.9375 2.34375 17.484375 1.953125 18.25 1.25 C 20.3125 -0.765625 21.78125 -3.546875 23.359375 -5.9375 C 24.234375 -7.1875 25.109375 -8.5 25.921875 -9.796875 C 26.140625 -10.078125 27.609375 -13.125 27.390625 -13.078125 C 27.71875 -13.125 27.125 -13.40625 27.015625 -13.40625 Z M 22.28125 -50.0625 L 22.28125 -50.109375 C 22.28125 -50.109375 22.328125 -50.109375 22.328125 -50.171875 L 22.328125 -50.109375 C 22.390625 -50.21875 22.4375 -50.328125 22.390625 -50.28125 C 22.828125 -50.921875 23.90625 -52.890625 24.671875 -52.234375 C 25.4375 -51.578125 24.734375 -49.296875 24.515625 -48.484375 C 24.078125 -46.78125 23.421875 -45.15625 22.765625 -43.578125 C 21.453125 -40.53125 19.828125 -37.640625 18.03125 -34.8125 C 17.15625 -33.4375 16.234375 -32.078125 15.3125 -30.78125 C 14.8125 -30.125 14.328125 -29.46875 13.78125 -28.8125 L 13.34375 -28.328125 L 14.328125 -29.296875 L 16.5 -32.359375 C 17.703125 -33.984375 18.84375 -35.78125 19.9375 -37.578125 C 17.15625 -32.6875 13.78125 -28.046875 9.859375 -23.90625 L 11.5 -28.21875 C 11.65625 -28.546875 12.796875 -31.75 12.796875 -31.75 C 12.6875 -31.703125 12.53125 -31.421875 12.359375 -31.15625 C 13.671875 -34.15625 15.359375 -37.25 16.890625 -40.25 C 18.578125 -43.515625 20.265625 -46.890625 22.21875 -50 C 22.21875 -50 22.28125 -50 22.28125 -50.0625 Z M 8.609375 -23.359375 C 9.09375 -26.3125 10.453125 -29.09375 11.4375 -31.921875 C 12.3125 -34.3125 13.71875 -36.5 14.8125 -38.78125 C 15.3125 -39.875 20.53125 -49.84375 20.640625 -49.78125 C 21.078125 -49.515625 14.375 -36.71875 13.671875 -35.1875 C 13.078125 -34.046875 12.53125 -32.953125 12.09375 -31.703125 C 11.703125 -30.5 11.0625 -29.515625 10.625 -28.375 C 10.40625 -27.828125 8.21875 -22.109375 8.390625 -22.0625 C 8.28125 -22.0625 8.5 -22.9375 8.546875 -23.203125 Z M 12.359375 -27.1875 C 12.46875 -27.28125 12.578125 -27.5 12.75 -27.671875 C 12.578125 -27.5 12.46875 -27.34375 12.359375 -27.1875 Z M 22.28125 -50.0625 L 22.28125 -50.109375 L 22.328125 -50.109375 Z M 8.609375 -23.3125 C 8.609375 -23.265625 8.546875 -23.203125 8.546875 -23.203125 C 8.546875 -23.265625 8.609375 -23.265625 8.609375 -23.3125 Z M 8.609375 -23.3125 "/></g></g><g transform="translate(143.35442, 201.625168)"><g><path d="M 25.765625 -13.296875 C 25.59375 -14.328125 23.09375 -11.4375 22.984375 -11.328125 C 21.40625 -9.640625 19.875 -7.78125 18.03125 -6.3125 C 17.15625 -5.671875 16.78125 -5.28125 16.828125 -6.59375 C 16.890625 -7.734375 17.328125 -8.9375 17.640625 -9.96875 C 17.8125 -10.515625 18.90625 -12.578125 18.578125 -12.96875 C 18.515625 -13.015625 18.40625 -12.859375 18.296875 -12.75 C 19.0625 -14.265625 20.921875 -16.890625 18.46875 -17.59375 C 15.6875 -18.359375 14.265625 -15.359375 13.078125 -13.5625 C 11.921875 -11.921875 10.84375 -10.34375 9.53125 -8.875 C 8.546875 -7.734375 7.03125 -5.5625 5.453125 -5.125 C 3.96875 -4.625 4.953125 -7.03125 5.171875 -7.84375 C 5.34375 -8.28125 7.296875 -13.34375 7.40625 -13.296875 C 7.296875 -13.296875 7.1875 -13.234375 7.078125 -13.078125 C 7.6875 -14.375 8.328125 -15.6875 9.046875 -16.9375 C 8.875 -16.609375 8.71875 -16.0625 8.71875 -16.0625 C 8.984375 -16.015625 10.296875 -18.6875 10.1875 -18.6875 C 10.078125 -18.625 9.96875 -18.515625 9.859375 -18.359375 C 10.296875 -19.125 10.84375 -19.5 9.859375 -20.265625 C 8.875 -21.03125 7.140625 -21.1875 6.15625 -20.3125 C 4.953125 -19.34375 4.1875 -17.59375 3.59375 -16.234375 C 3.21875 -15.46875 2.5625 -15.03125 2.171875 -14.15625 C 1.421875 -12.46875 0.984375 -10.78125 0.546875 -9.046875 C 0.109375 -7.359375 -0.15625 -5.609375 0.109375 -3.875 C 0.265625 -3.109375 0.546875 -2.234375 1.140625 -1.6875 C 1.3125 -1.578125 2.890625 -0.984375 2.78125 -1.359375 C 2.671875 -1.359375 2.5625 -1.359375 2.5 -1.421875 C 3.109375 -1.421875 3.703125 -1.6875 4.25 -2.015625 C 4.296875 -1.953125 3.8125 -1.75 3.8125 -1.6875 C 4.359375 -0.984375 8.5 -5.171875 8.875 -5.671875 C 10.234375 -7.40625 11.609375 -9.09375 13.015625 -10.78125 C 12.3125 -8.875 11.109375 -6.265625 12.25 -4.1875 C 12.90625 -3.109375 14.15625 -2.5 15.359375 -2.609375 C 17.921875 -2.78125 20.203125 -5.5625 21.78125 -7.25 C 22.828125 -8.390625 23.859375 -9.59375 24.625 -10.890625 C 24.953125 -11.4375 25.8125 -12.640625 25.765625 -13.296875 Z M 17.484375 -12.203125 C 17.375 -11.875 17.328125 -11.4375 17.15625 -11.171875 C 17.15625 -11.109375 17.109375 -11.0625 17.046875 -11 C 17.109375 -11.0625 17.109375 -11.109375 17.109375 -11.171875 C 16.671875 -12.53125 18.296875 -14.265625 18.84375 -15.625 C 18.40625 -14.4375 17.859375 -13.34375 17.484375 -12.203125 Z M 4.515625 -5.171875 C 4.1875 -6.75 5.34375 -8.9375 5.9375 -10.40625 C 5.171875 -8.28125 4.40625 -5.671875 4.515625 -5.171875 Z M 13.015625 -10.515625 C 13.015625 -10.734375 13.078125 -10.890625 13.234375 -11 C 13.125 -10.84375 13.078125 -10.671875 13.015625 -10.515625 Z M 13.015625 -10.515625 "/></g></g></g><g fill="#000000" fill-opacity="1"><g transform="translate(165.139803, 201.625168)"><g><path d="M 21.625 -12.796875 C 21.453125 -13.5625 21.03125 -13.671875 20.484375 -13.453125 C 19.4375 -12.96875 18.40625 -11.875 17.4375 -11.21875 C 15.203125 -9.796875 12.96875 -8.65625 10.5625 -7.46875 C 10.5625 -7.515625 10.515625 -7.625 10.453125 -7.78125 C 10.515625 -7.515625 10.453125 -7.40625 10.40625 -7.359375 C 9.859375 -9.703125 9.3125 -12.03125 8.875 -14.4375 C 9.09375 -13.40625 9.59375 -11.65625 9.96875 -10.1875 C 9.484375 -12.46875 8.875 -15.3125 8.9375 -15.3125 C 8.828125 -15.25 8.828125 -15.140625 8.828125 -15.03125 C 8.71875 -15.6875 8.546875 -16.5 8.65625 -17.21875 C 8.71875 -18.03125 9.15625 -18.734375 9.421875 -19.5 C 9.375 -19.125 9.265625 -18.625 9.265625 -18.625 C 9.59375 -18.578125 9.796875 -20.59375 9.796875 -20.8125 C 9.75 -21.140625 9.046875 -22.171875 9.046875 -21.890625 C 7.578125 -23.265625 4.6875 -20.265625 4.25 -18.953125 C 3.921875 -18.078125 3.921875 -17.15625 3.96875 -16.234375 C 4.03125 -15.3125 4.296875 -14.484375 4.578125 -13.609375 C 4.734375 -12.96875 4.515625 -12.53125 4.578125 -11.8125 C 4.6875 -10.734375 5.0625 -9.640625 5.28125 -8.609375 C 5.5 -7.78125 6.203125 -6.15625 6.046875 -5.390625 C 5.9375 -4.625 4.296875 -3.96875 3.59375 -3.546875 C 2.671875 -2.9375 1.75 -2.234375 0.8125 -1.53125 C -0.8125 -0.265625 -2.5625 1.3125 -3.21875 3.328125 C -3.328125 3.59375 -3.703125 4.796875 -3.328125 5.015625 C -3.265625 5.0625 -3.109375 4.140625 -3.046875 4.03125 C -3.765625 7.625 -0.21875 9.375 3.109375 9.421875 C 6.859375 9.53125 9.484375 7.359375 10.78125 3.96875 C 11.328125 2.5 11.5 0.984375 11.4375 -0.546875 C 11.4375 -1.578125 11.328125 -2.5625 11.171875 -3.546875 C 11.0625 -4.40625 10.953125 -4.359375 11.546875 -4.84375 C 11.984375 -5.171875 12.640625 -5.390625 13.078125 -5.609375 C 14.8125 -6.53125 16.390625 -7.625 17.96875 -8.765625 C 19.125 -9.59375 21.84375 -11 21.625 -12.75 Z M -0.375 5.9375 C -1.796875 5.5 -0.375 3.265625 0.109375 2.5625 C 0.921875 1.46875 2.125 0.65625 3.21875 -0.109375 L 4.84375 -1.203125 C 5.015625 -1.3125 6.046875 -2.125 5.71875 -2.015625 L 6.375 -2.390625 L 5.984375 -2.0625 C 6.09375 -2.125 6.265625 -2.171875 6.375 -2.28125 C 6.421875 -0.984375 6.421875 0.328125 6.046875 1.640625 C 5.984375 1.859375 4.953125 4.03125 4.515625 4.46875 L 4.796875 4.25 C 4.296875 4.84375 3.765625 5.34375 3.109375 5.71875 C 3.109375 5.671875 3.59375 5.34375 3.546875 5.28125 L 2.015625 5.875 C 1.25 6.046875 0.375 6.203125 -0.375 5.9375 Z M 6.484375 7.515625 C 5.0625 8.109375 3.703125 8.390625 2.234375 8.4375 C 4.90625 8.28125 7.6875 6.96875 9.265625 4.734375 C 8.65625 5.9375 7.890625 6.859375 6.484375 7.515625 Z M 10.453125 -7.953125 C 10.40625 -8.328125 10.296875 -8.875 10.125 -9.484375 C 10.234375 -8.875 10.34375 -8.28125 10.453125 -7.953125 Z M 11.171875 -2.28125 C 11.109375 -2.34375 11.109375 -2.453125 11.109375 -2.5625 C 11.109375 -2.453125 11.171875 -2.34375 11.171875 -2.28125 Z M 11.171875 -2.28125 "/></g></g></g><g fill="#000000" fill-opacity="1"><g transform="translate(182.785966, 201.625168)"><g><path d="M 21.625 -12.796875 C 21.453125 -13.5625 21.03125 -13.671875 20.484375 -13.453125 C 19.4375 -12.96875 18.40625 -11.875 17.4375 -11.21875 C 15.203125 -9.796875 12.96875 -8.65625 10.5625 -7.46875 C 10.5625 -7.515625 10.515625 -7.625 10.453125 -7.78125 C 10.515625 -7.515625 10.453125 -7.40625 10.40625 -7.359375 C 9.859375 -9.703125 9.3125 -12.03125 8.875 -14.4375 C 9.09375 -13.40625 9.59375 -11.65625 9.96875 -10.1875 C 9.484375 -12.46875 8.875 -15.3125 8.9375 -15.3125 C 8.828125 -15.25 8.828125 -15.140625 8.828125 -15.03125 C 8.71875 -15.6875 8.546875 -16.5 8.65625 -17.21875 C 8.71875 -18.03125 9.15625 -18.734375 9.421875 -19.5 C 9.375 -19.125 9.265625 -18.625 9.265625 -18.625 C 9.59375 -18.578125 9.796875 -20.59375 9.796875 -20.8125 C 9.75 -21.140625 9.046875 -22.171875 9.046875 -21.890625 C 7.578125 -23.265625 4.6875 -20.265625 4.25 -18.953125 C 3.921875 -18.078125 3.921875 -17.15625 3.96875 -16.234375 C 4.03125 -15.3125 4.296875 -14.484375 4.578125 -13.609375 C 4.734375 -12.96875 4.515625 -12.53125 4.578125 -11.8125 C 4.6875 -10.734375 5.0625 -9.640625 5.28125 -8.609375 C 5.5 -7.78125 6.203125 -6.15625 6.046875 -5.390625 C 5.9375 -4.625 4.296875 -3.96875 3.59375 -3.546875 C 2.671875 -2.9375 1.75 -2.234375 0.8125 -1.53125 C -0.8125 -0.265625 -2.5625 1.3125 -3.21875 3.328125 C -3.328125 3.59375 -3.703125 4.796875 -3.328125 5.015625 C -3.265625 5.0625 -3.109375 4.140625 -3.046875 4.03125 C -3.765625 7.625 -0.21875 9.375 3.109375 9.421875 C 6.859375 9.53125 9.484375 7.359375 10.78125 3.96875 C 11.328125 2.5 11.5 0.984375 11.4375 -0.546875 C 11.4375 -1.578125 11.328125 -2.5625 11.171875 -3.546875 C 11.0625 -4.40625 10.953125 -4.359375 11.546875 -4.84375 C 11.984375 -5.171875 12.640625 -5.390625 13.078125 -5.609375 C 14.8125 -6.53125 16.390625 -7.625 17.96875 -8.765625 C 19.125 -9.59375 21.84375 -11 21.625 -12.75 Z M -0.375 5.9375 C -1.796875 5.5 -0.375 3.265625 0.109375 2.5625 C 0.921875 1.46875 2.125 0.65625 3.21875 -0.109375 L 4.84375 -1.203125 C 5.015625 -1.3125 6.046875 -2.125 5.71875 -2.015625 L 6.375 -2.390625 L 5.984375 -2.0625 C 6.09375 -2.125 6.265625 -2.171875 6.375 -2.28125 C 6.421875 -0.984375 6.421875 0.328125 6.046875 1.640625 C 5.984375 1.859375 4.953125 4.03125 4.515625 4.46875 L 4.796875 4.25 C 4.296875 4.84375 3.765625 5.34375 3.109375 5.71875 C 3.109375 5.671875 3.59375 5.34375 3.546875 5.28125 L 2.015625 5.875 C 1.25 6.046875 0.375 6.203125 -0.375 5.9375 Z M 6.484375 7.515625 C 5.0625 8.109375 3.703125 8.390625 2.234375 8.4375 C 4.90625 8.28125 7.6875 6.96875 9.265625 4.734375 C 8.65625 5.9375 7.890625 6.859375 6.484375 7.515625 Z M 10.453125 -7.953125 C 10.40625 -8.328125 10.296875 -8.875 10.125 -9.484375 C 10.234375 -8.875 10.34375 -8.28125 10.453125 -7.953125 Z M 11.171875 -2.28125 C 11.109375 -2.34375 11.109375 -2.453125 11.109375 -2.5625 C 11.109375 -2.453125 11.171875 -2.34375 11.171875 -2.28125 Z M 11.171875 -2.28125 "/></g></g></g><g fill="#000000" fill-opacity="1"><g transform="translate(200.43212, 201.625168)"><g><path d="M 27.71875 -13.125 C 27.671875 -14.328125 26.6875 -13.296875 26.359375 -12.859375 C 25.65625 -11.8125 25 -10.734375 24.34375 -9.703125 C 22.875 -7.46875 21.40625 -5.234375 19.71875 -3.109375 C 14.109375 3.8125 18.03125 -8.5 17.59375 -8.390625 C 17.375 -8.328125 17.21875 -7.515625 17.15625 -7.359375 C 17.59375 -9.3125 18.40625 -11.65625 19.4375 -13.5625 C 20.046875 -14.765625 20.75 -15.734375 19.65625 -17.046875 C 17.640625 -19.5 15.3125 -17.265625 14 -15.578125 C 13.453125 -17.640625 12.359375 -20.703125 9.703125 -20.703125 C 8.5 -20.703125 7.78125 -20.09375 6.96875 -19.390625 C 6.484375 -19.0625 6.09375 -19.015625 5.671875 -18.625 C 4.953125 -18.140625 4.46875 -17.375 3.96875 -16.71875 C 2.125 -14 0.8125 -10.5625 0.21875 -7.40625 C -0.046875 -5.875 -0.15625 -4.1875 0.265625 -2.671875 C 0.546875 -1.796875 1.53125 0.15625 2.78125 0 C 2.828125 0 2.71875 -0.046875 2.5625 -0.15625 C 3.328125 0.046875 4.1875 -0.046875 4.84375 -0.484375 C 4.90625 -0.375 4.25 -0.109375 4.25 -0.109375 C 4.84375 0.8125 9.3125 -4.578125 9.640625 -5.0625 C 10.34375 -6.046875 10.84375 -7.078125 11.5 -8.109375 C 11.984375 -8.875 12.75 -9.859375 13.296875 -10.671875 C 13.234375 -10.296875 13.234375 -9.796875 13.234375 -9.796875 C 12.25 -6.703125 11.328125 -3.328125 12.640625 -0.109375 C 13.234375 1.53125 14.703125 3.046875 16.5625 2.71875 C 18.1875 2.453125 19.546875 0.875 20.53125 -0.375 C 21.734375 -1.796875 22.765625 -3.375 23.796875 -5.015625 C 24.671875 -6.484375 25.484375 -7.953125 26.203125 -9.59375 C 26.640625 -10.625 27.828125 -11.875 27.71875 -13.125 Z M 12.09375 -12.75 C 11.8125 -12.359375 11.546875 -11.984375 11.328125 -11.609375 L 9.90625 -9.59375 C 8.984375 -8.21875 8 -6.921875 6.96875 -5.671875 C 6.703125 -5.28125 5.390625 -3.59375 4.84375 -3.765625 C 4.03125 -4.03125 4.90625 -6.859375 5.015625 -7.296875 C 5.171875 -8.0625 8.0625 -16.453125 8.828125 -16.609375 C 7.84375 -16.671875 4.6875 -6.8125 4.515625 -5.984375 C 4.953125 -8.65625 5.9375 -11.28125 7.03125 -13.71875 C 7.625 -14.984375 8.984375 -18.296875 10.78125 -18.296875 C 11.765625 -18.296875 11.984375 -16.28125 12.140625 -15.625 C 12.09375 -15.734375 11.609375 -17.328125 11.546875 -17.265625 C 11.28125 -17.046875 12.359375 -14.046875 12.359375 -13.609375 C 12.359375 -13.1875 12.359375 -13.1875 12.09375 -12.75 Z M 13.34375 -10.078125 C 13.34375 -10.078125 13.515625 -10.84375 13.5625 -11 L 13.828125 -11.390625 Z M 12.53125 -13.453125 L 12.53125 -14 C 12.6875 -13.78125 12.6875 -13.609375 12.53125 -13.453125 Z M 12.53125 -13.453125 "/></g></g></g><g fill="#000000" fill-opacity="1"><g transform="translate(224.178179, 201.625168)"><g><path d="M 15.53125 -27.234375 C 15.3125 -27.9375 14.703125 -28.546875 14.046875 -28.875 C 13.078125 -29.25 12.96875 -28.703125 12.203125 -28.484375 C 10.078125 -27.9375 7.578125 -28.375 5.5 -27.34375 C 5.5625 -27.1875 5.5 -27.125 5.390625 -27.125 C 5.171875 -27.078125 5.015625 -27.015625 4.796875 -26.90625 C 4.578125 -26.6875 4.359375 -26.53125 4.1875 -26.25 C 3.8125 -25.59375 3.96875 -25.171875 4.6875 -24.890625 C 5.875 -24.453125 10.015625 -25.921875 10.40625 -24.890625 C 10.5625 -24.40625 9.53125 -22.546875 9.375 -22.0625 L 8.4375 -19.4375 L 6.484375 -13.890625 C 5.71875 -11.875 5.171875 -9.796875 4.625 -7.6875 C 4.1875 -6.046875 3.328125 -4.515625 2.828125 -2.890625 C 2.234375 -0.875 1.3125 1.3125 0.984375 3.375 C 0.984375 3.546875 0.921875 3.703125 0.921875 3.921875 C 1.09375 5.34375 3.375 5.984375 4.578125 5.9375 C 5.984375 5.875 6.484375 4.84375 6.75 3.59375 C 7.515625 0.046875 8.65625 -3.546875 9.203125 -7.078125 C 9.421875 -8.609375 10.1875 -10.1875 10.671875 -11.65625 C 11.28125 -13.453125 12.03125 -15.140625 12.640625 -16.890625 C 12.96875 -17.859375 12.90625 -18.734375 13.34375 -19.765625 C 13.609375 -20.484375 14 -21.1875 14.265625 -21.890625 C 14.765625 -23.203125 15.53125 -24.953125 15.6875 -26.359375 C 15.734375 -26.640625 15.625 -27.015625 15.53125 -27.234375 Z M 10.515625 -17.640625 L 10.953125 -18.734375 C 10.625 -16.671875 10.015625 -14.703125 9.09375 -13.515625 C 9.59375 -14.875 10.078125 -16.234375 10.515625 -17.640625 Z M 6.96875 -7.1875 L 6.921875 -7.140625 L 6.921875 -7.078125 C 6.921875 -7.03125 6.859375 -6.96875 6.859375 -6.96875 C 6.859375 -6.8125 6.8125 -6.640625 6.75 -6.59375 C 6.703125 -6.53125 6.421875 -6.59375 6.53125 -6.703125 C 6.59375 -6.75 6.640625 -6.640625 6.703125 -6.640625 C 6.265625 -6.921875 7.03125 -7.84375 7.296875 -8.390625 L 7.296875 -8.109375 C 7.359375 -8.28125 7.40625 -8.328125 7.515625 -8.4375 C 7.515625 -8.5 7.578125 -8.21875 7.578125 -8.28125 C 7.46875 -7.890625 7.1875 -7.578125 6.96875 -7.1875 Z M 8.765625 -12.6875 C 8.546875 -11.984375 8.28125 -11.28125 8 -10.5625 C 8.71875 -12.53125 9.265625 -14.65625 10.078125 -16.671875 L 10.296875 -17.21875 L 8.828125 -12.796875 C 8.828125 -12.75 8.828125 -12.6875 8.765625 -12.6875 Z M 11.984375 -21.953125 L 11.328125 -20.3125 C 11.5 -21.03125 11.609375 -21.953125 12.03125 -22.4375 C 12.09375 -22.5 12.03125 -22.171875 12.03125 -22.109375 C 11.984375 -22 11.984375 -22 11.984375 -21.953125 Z M 7.25 -8.109375 C 7.03125 -7.890625 6.96875 -7.46875 6.921875 -7.140625 C 7.078125 -7.625 7.359375 -8.171875 7.25 -8.109375 Z M 7.734375 -9.96875 C 7.734375 -9.859375 7.6875 -9.75 7.6875 -9.703125 C 7.6875 -9.75 7.6875 -9.90625 7.734375 -9.96875 Z M 7.734375 -9.96875 "/></g></g></g><g fill="#000000" fill-opacity="1"><g transform="translate(238.175289, 201.625168)"><g><path d="M 22.546875 -12.96875 C 22.28125 -14.265625 21.515625 -13.40625 21.1875 -12.90625 C 20.421875 -11.984375 19.234375 -11.109375 18.296875 -10.234375 C 17.046875 -9.15625 15.796875 -8 14.484375 -6.96875 C 13.828125 -6.421875 13.015625 -5.671875 12.203125 -5.390625 C 12.09375 -5.34375 11.703125 -5.28125 11.703125 -5.234375 L 11.65625 -5.28125 C 11.65625 -5.28125 11.609375 -6.15625 11.65625 -6.203125 C 11.703125 -6.921875 11.921875 -7.625 12.140625 -8.28125 C 12.203125 -8.390625 12.796875 -10.234375 12.6875 -10.234375 L 12.421875 -9.90625 C 12.75 -10.5625 13.1875 -11.21875 13.5625 -11.921875 C 12.6875 -11.109375 12.09375 -10.1875 11.65625 -9.046875 C 11.4375 -8.5 10.84375 -7.515625 10.734375 -6.703125 C 10.84375 -7.890625 11.65625 -9.484375 12.03125 -10.1875 C 12.578125 -11.328125 13.1875 -12.640625 13.890625 -13.71875 C 15.203125 -15.6875 18.03125 -17.484375 17.15625 -20.203125 C 16.390625 -22.765625 14.375 -22.828125 12.796875 -21.359375 C 12.03125 -20.640625 5.5625 -12.359375 5.71875 -12.25 C 5.71875 -12.25 6.265625 -12.90625 6.96875 -13.828125 L 3.765625 -9.15625 C 3.703125 -9.15625 4.296875 -10.078125 4.25 -10.125 C 4.1875 -10.1875 3.8125 -9.796875 3.765625 -9.59375 C 3.875 -10.734375 4.25 -11.875 4.359375 -13.015625 C 4.40625 -13.453125 4.359375 -13.78125 4.46875 -14.21875 C 4.6875 -14.921875 4.90625 -15.6875 5.234375 -16.28125 C 5.453125 -16.71875 5.875 -17.109375 5.984375 -17.53125 C 6.203125 -18.25 6.15625 -18.515625 6.640625 -19.125 C 7.078125 -19.65625 7.734375 -20.203125 8.109375 -20.703125 C 9.046875 -22.0625 7.46875 -22.984375 6.59375 -23.15625 C 5.875 -23.265625 5.171875 -23.3125 4.515625 -22.9375 C 3.8125 -22.5 3.96875 -22.109375 3.8125 -21.515625 C 3.65625 -20.75 3.109375 -19.875 2.828125 -19.171875 C 2.390625 -18.03125 2.015625 -16.890625 1.640625 -15.734375 C 1.203125 -14.59375 0.765625 -13.515625 0.4375 -12.359375 C 0.15625 -11.4375 0.21875 -10.5625 0.109375 -9.703125 C 0 -8.71875 -0.15625 -8.0625 0.328125 -7.1875 C 0.875 -6.265625 2.34375 -4.84375 3.328125 -6.046875 L 3.546875 -5.609375 C 4.46875 -7.625 5.875 -9.421875 7.03125 -11.390625 C 7.515625 -12.25 8.390625 -12.859375 9.09375 -13.78125 C 10.078125 -15.09375 10.953125 -16.390625 12.03125 -17.640625 C 11.875 -17.375 11.171875 -16.125 11.21875 -16.0625 C 11.328125 -16.125 11.390625 -16.234375 11.5 -16.34375 L 10.734375 -14.8125 C 10.671875 -14.875 10.953125 -15.25 10.84375 -15.25 C 10.453125 -15.359375 9.3125 -12.3125 9.203125 -12.03125 C 8.828125 -10.84375 8.765625 -9.75 8.65625 -8.5 C 8.609375 -7.890625 8.5 -7.296875 8.5 -6.703125 C 8.5 -6.09375 8.546875 -5.5 8.828125 -4.90625 C 8.984375 -4.578125 9.203125 -4.140625 9.484375 -3.875 C 9.53125 -3.875 10.125 -3.328125 9.859375 -3.765625 L 10.1875 -3.4375 L 10.015625 -3.546875 C 9.96875 -3.265625 11.984375 -2.171875 12.3125 -2.0625 C 13.828125 -1.578125 15.46875 -3.328125 16.453125 -4.359375 C 17.75 -5.78125 18.84375 -7.40625 20.046875 -8.9375 C 20.703125 -9.796875 22.765625 -11.65625 22.546875 -12.96875 Z M 22.546875 -12.96875 "/></g></g></g><g fill="#000000" fill-opacity="1"><g transform="translate(256.74734, 201.625168)"><g><path d="M 8.5 -0.546875 C 8.5 -0.921875 8.828125 -1.421875 8.5 -1.859375 C 8.21875 -2.171875 8.21875 -1.953125 7.953125 -2.015625 C 6.859375 -2.453125 5.828125 -2.171875 4.84375 -1.6875 C 3.59375 -1.03125 1.578125 1.203125 2.34375 2.828125 C 2.5625 3.265625 3.546875 4.140625 3.921875 4.296875 C 4.953125 4.84375 5.5 4.140625 6.15625 3.546875 C 6.921875 2.828125 7.46875 2.5625 7.84375 1.6875 C 7.953125 1.46875 9.265625 -0.546875 8.5 -0.546875 Z M 8.5 -0.546875 "/></g></g></g><g fill="#000000" fill-opacity="1"><g transform="translate(268.67485, 201.625168)"><g><path d="M 19.71875 -10.078125 C 20.203125 -10.78125 22.171875 -12.859375 21.359375 -13.78125 C 20.265625 -14.875 17.4375 -10.34375 17 -9.796875 C 16.125 -8.65625 15.203125 -7.578125 14.328125 -6.484375 C 13.828125 -5.875 13.34375 -5.28125 12.796875 -4.734375 C 12.6875 -4.625 11.65625 -3.328125 11.765625 -3.328125 C 11.921875 -3.375 12.09375 -3.484375 12.25 -3.59375 C 11.328125 -2.609375 10.078125 -1.75 8.9375 -0.875 C 8.171875 -0.328125 6.703125 0.875 5.78125 0.21875 C 5.390625 0 5.28125 -0.546875 5.171875 -0.921875 C 4.796875 -2.609375 5.0625 -4.625 5.34375 -6.375 C 5.9375 -10.015625 7.140625 -13.609375 8.609375 -17.046875 C 9.3125 -18.625 10.015625 -20.203125 11.28125 -21.40625 C 11.390625 -21.515625 11.609375 -21.296875 11.65625 -21.359375 C 11.765625 -21.40625 11.328125 -21.5625 11.28125 -21.515625 C 10.671875 -21.1875 10.296875 -20.53125 9.96875 -19.9375 C 8.984375 -18.359375 8.21875 -16.609375 7.578125 -14.875 C 8.0625 -16.234375 8.609375 -17.59375 9.265625 -18.953125 C 9.640625 -19.65625 10.078125 -20.8125 10.78125 -21.359375 C 12.640625 -22.828125 11.921875 -17.96875 11.703125 -17.265625 C 11.703125 -17.328125 11.921875 -18.515625 11.875 -18.515625 C 11.765625 -18.515625 11 -15.734375 11 -15.734375 L 11.28125 -15.953125 C 11 -15.53125 10.453125 -15.203125 11.171875 -14.703125 C 12.03125 -14.109375 13.71875 -15.140625 14.109375 -15.90625 C 14.484375 -16.71875 14.59375 -17.8125 14.65625 -18.625 C 14.765625 -20.046875 14.375 -20.859375 13.890625 -21.953125 C 13.34375 -23.09375 12.859375 -23.796875 11.390625 -24.015625 C 10.1875 -24.1875 9.09375 -23.6875 8.171875 -22.984375 C 6.8125 -22 5.78125 -20.75 4.90625 -19.34375 C 4.6875 -18.953125 2.71875 -14.984375 2.78125 -14.921875 L 3 -15.203125 C 2.71875 -14.59375 2.5625 -14 2.34375 -13.453125 C 2.28125 -13.453125 2.453125 -13.9375 2.390625 -13.9375 C 2.0625 -14 1.09375 -11 1.03125 -10.734375 C 0.65625 -9.59375 0.375 -8.4375 0.328125 -7.25 C 0.265625 -5.9375 0.046875 -4.625 0 -3.265625 C 0 -2.5625 0 -1.796875 0.109375 -1.09375 C 0.109375 -0.875 0.546875 0.265625 0.546875 -0.046875 L 0.8125 0.875 C 0.765625 0.8125 0.546875 0.265625 0.546875 0.265625 C 0.265625 0.59375 1.75 2.71875 2.0625 3.046875 C 2.5 3.546875 3.15625 3.765625 3.8125 3.875 C 5.984375 4.140625 8.0625 2.890625 9.640625 1.578125 C 12.359375 -0.703125 15.03125 -3.546875 17.046875 -6.484375 C 17.859375 -7.734375 18.796875 -8.875 19.71875 -10.078125 Z M 3.765625 -14.046875 C 3.65625 -13.515625 3.484375 -12.90625 3.265625 -12.421875 C 3.109375 -12.03125 2.609375 -11.703125 2.5625 -11.4375 C 2.671875 -12.359375 3.375 -13.296875 3.8125 -14.328125 C 3.8125 -14.21875 3.765625 -14.109375 3.765625 -14.046875 Z M 1.75 -7.6875 C 1.53125 -7.296875 1.53125 -6.59375 1.53125 -5.984375 C 1.46875 -6.640625 1.46875 -7.359375 1.6875 -8 C 1.6875 -8 1.859375 -7.78125 1.75 -7.6875 Z M 5.671875 -8.984375 C 5.875 -9.859375 6.15625 -10.734375 6.421875 -11.609375 Z M 1.859375 -8.71875 C 1.796875 -8.546875 1.6875 -8.328125 1.6875 -8.21875 C 1.6875 -8.5 1.6875 -8.765625 1.953125 -8.875 Z M 6.640625 -12.25 C 6.59375 -12.203125 6.59375 -12.203125 6.59375 -12.140625 C 6.59375 -12.25 6.59375 -12.359375 6.640625 -12.46875 Z M 6.640625 -12.25 "/></g></g></g><g fill="#000000" fill-opacity="1"><g transform="translate(286.212094, 201.625168)"><g><path d="M 25.0625 -13.5625 C 25.0625 -13.5625 25.109375 -13.515625 25.0625 -13.609375 C 24.78125 -14 24.40625 -13.71875 24.015625 -13.609375 C 22.4375 -13.296875 20.8125 -12.90625 19.171875 -12.640625 C 19.765625 -14.59375 20.375 -16.671875 20.59375 -18.6875 C 20.703125 -19.4375 20.75 -20.265625 20.59375 -21.03125 C 20.484375 -21.515625 20.3125 -22 20.046875 -22.4375 C 20.046875 -22.4375 19.390625 -23.265625 19.546875 -22.828125 L 19.5 -22.875 L 19.28125 -23.3125 L 19.5 -23.09375 C 19.546875 -23.421875 18.625 -24.015625 18.625 -24.015625 C 17.265625 -25.375 15.421875 -26.421875 13.5625 -25.375 C 12.421875 -24.734375 11.5 -23.640625 10.734375 -22.546875 C 10.453125 -22.171875 10.1875 -21.734375 9.96875 -21.296875 C 9.75 -20.859375 9.421875 -19.4375 9.09375 -19.234375 C 8.828125 -19.015625 8 -18.953125 7.625 -18.734375 C 7.078125 -18.515625 6.59375 -18.25 6.15625 -17.921875 C 5.125 -17.265625 4.296875 -16.34375 3.546875 -15.421875 C 2.234375 -13.671875 1.578125 -11.703125 0.65625 -9.96875 C -1.09375 -6.640625 0.8125 -2.28125 4.03125 -0.703125 C 5.0625 -0.21875 6.265625 0 7.359375 -0.109375 C 8.5 -0.265625 9.59375 -0.875 10.453125 -1.53125 C 11.28125 -2.125 13.078125 -3.21875 13.40625 -4.140625 C 13.40625 -4.1875 13.296875 -4.140625 13.125 -3.96875 L 14.703125 -5.828125 C 14.765625 -5.78125 14.328125 -5.234375 14.328125 -5.234375 C 14.703125 -5.0625 16.671875 -7.953125 16.890625 -8.171875 C 17.265625 -8.828125 17.640625 -9.53125 18.078125 -10.1875 C 18.46875 -10.671875 18.359375 -10.625 18.90625 -10.84375 C 18.84375 -10.78125 19.546875 -11 19.65625 -11 C 20.265625 -11.109375 26.640625 -11.546875 25.0625 -13.5625 Z M 6.203125 -2.5625 L 6.15625 -2.5625 C 1.640625 -1.90625 6.859375 -11.5 6.96875 -12.03125 L 6.640625 -11.546875 C 7.46875 -13.1875 8.21875 -14.484375 8.609375 -14.921875 C 9.203125 -12.203125 12.140625 -11.171875 14.546875 -10.84375 C 12.96875 -7.6875 10.015625 -3.265625 6.203125 -2.5625 Z M 16.9375 -17.640625 C 16.5625 -16.125 16.234375 -14.109375 15.421875 -12.75 C 15.140625 -12.203125 15.3125 -12.359375 14.765625 -12.25 C 14.4375 -12.140625 13.71875 -12.25 13.40625 -12.3125 C 12.796875 -12.359375 12.09375 -12.46875 11.65625 -12.859375 C 10.890625 -13.515625 11 -14.546875 11.109375 -15.46875 C 11.21875 -16.390625 11.5 -17.265625 11.8125 -18.140625 C 11.984375 -18.46875 13.015625 -20.203125 12.859375 -20.53125 C 12.796875 -20.703125 12.203125 -19.71875 12.140625 -19.65625 C 12.46875 -20.265625 12.796875 -20.59375 13.078125 -20.96875 C 13.015625 -20.96875 13.078125 -21.03125 13.125 -21.140625 L 13.125 -21.078125 L 13.1875 -21.1875 C 13.1875 -21.1875 13.1875 -21.25 13.234375 -21.25 C 14.046875 -22.328125 16.0625 -24.78125 17.15625 -23.09375 C 17.96875 -21.671875 17.21875 -19.015625 16.9375 -17.640625 Z M 13.1875 -21.1875 L 13.234375 -21.25 C 13.234375 -21.1875 13.1875 -21.1875 13.1875 -21.1875 Z M 13.1875 -21.1875 "/></g></g></g><g fill="#000000" fill-opacity="1"><g transform="translate(307.507308, 201.625168)"><g><path d="M 33.109375 -13.078125 C 33.109375 -13.078125 33.171875 -13.015625 33.109375 -13.125 C 32.734375 -14.328125 30.34375 -11.0625 30.0625 -10.734375 C 28.65625 -9.046875 27.234375 -7.296875 25.765625 -5.671875 C 25.171875 -5.015625 23.046875 -2.0625 22 -2.28125 C 21.515625 -2.390625 21.890625 -5.015625 21.890625 -5.015625 C 21.78125 -4.90625 21.734375 -4.796875 21.671875 -4.6875 C 22.109375 -6.75 23.359375 -9.203125 24.234375 -11.28125 C 25.171875 -13.609375 26.53125 -16.671875 25.8125 -19.28125 C 25 -22.28125 21.890625 -20.75 20.421875 -19.34375 C 19.875 -18.796875 15.359375 -12.90625 15.421875 -12.53125 L 16.5 -14 C 15.625 -12.640625 14.8125 -11.328125 14.15625 -9.96875 C 14.703125 -11.875 15.25 -13.828125 15.90625 -15.734375 C 16.390625 -17.046875 17.21875 -18.40625 17.59375 -19.765625 C 18.03125 -21.515625 16.5 -23.90625 14.546875 -23.640625 C 13.125 -23.46875 11.921875 -21.84375 11.21875 -20.703125 C 10.34375 -19.28125 9.3125 -17.96875 8.4375 -16.609375 C 7.40625 -14.921875 6.53125 -13.078125 5.671875 -11.328125 C 4.90625 -9.90625 4.515625 -8.28125 3.703125 -6.96875 C 3.8125 -7.578125 3.59375 -8 3.59375 -8.546875 C 3.59375 -9.046875 3.8125 -9.640625 3.921875 -10.125 C 4.078125 -10.890625 4.515625 -11.546875 4.6875 -12.3125 C 4.796875 -12.6875 4.6875 -12.859375 4.796875 -13.234375 C 4.84375 -13.515625 5.125 -13.828125 5.28125 -14.046875 C 5.671875 -14.59375 6.15625 -15.09375 6.484375 -15.625 C 6.53125 -15.734375 6.640625 -15.84375 6.640625 -15.953125 C 6.859375 -16.71875 6.3125 -17 6.046875 -17.375 C 5.78125 -17.703125 5.5 -18.40625 5.0625 -18.796875 C 4.734375 -19.0625 4.1875 -19.390625 3.8125 -19.234375 C 3.328125 -19.015625 3.546875 -18.734375 3.375 -18.46875 C 3.15625 -17.921875 2.71875 -17.484375 2.453125 -17 C 2.015625 -16.0625 1.640625 -15.140625 1.359375 -14.21875 C 0.703125 -12.3125 -0.046875 -10.34375 0.046875 -8.328125 C 0.109375 -6.8125 -0.328125 -5.5625 0.8125 -4.1875 C 1.359375 -3.546875 3.484375 -2.125 4.03125 -3.109375 C 4.078125 -3.21875 4.140625 -3.65625 4.140625 -3.8125 C 4.296875 -4.359375 4.6875 -4.84375 4.90625 -5.390625 C 5.453125 -6.484375 5.9375 -7.625 6.53125 -8.765625 C 8.0625 -11.65625 9.203125 -14.4375 11 -17.21875 C 11.546875 -18.03125 12.203125 -18.84375 12.859375 -19.609375 C 13.015625 -19.765625 13.828125 -20.921875 13.9375 -20.859375 C 14.8125 -20.8125 13.078125 -17.484375 12.90625 -16.890625 C 12.203125 -15.03125 10.953125 -13.125 10.734375 -11.171875 C 10.671875 -10.515625 10.84375 -10.296875 10.671875 -9.703125 C 10.515625 -9.046875 10.234375 -8.328125 10.296875 -7.625 C 10.40625 -6.96875 10.671875 -6.375 11.171875 -5.9375 C 12.90625 -4.25 13.609375 -6.203125 14.375 -7.515625 C 15.3125 -9.046875 16.171875 -11.21875 17.328125 -12.359375 C 19.125 -14.109375 20.046875 -16.453125 21.84375 -18.140625 C 21.5625 -17.53125 20.046875 -13.828125 20.09375 -13.78125 C 20.203125 -13.890625 20.265625 -14 20.3125 -14.109375 C 20.09375 -13.515625 19.875 -12.96875 19.71875 -12.421875 C 19.609375 -12.46875 19.828125 -12.90625 19.765625 -12.90625 C 19.4375 -12.96875 18.46875 -9.90625 18.40625 -9.703125 C 18.03125 -8.609375 17.859375 -7.578125 17.859375 -6.421875 C 17.859375 -5.390625 17.859375 -4.359375 18.03125 -3.265625 C 18.140625 -2.609375 18.296875 -1.90625 18.625 -1.3125 C 18.734375 -1.03125 19.5 -0.265625 19.5 -0.375 C 19.546875 -0.265625 19.546875 -0.15625 19.65625 -0.109375 L 19.609375 -0.15625 C 19.5 0.265625 21.78125 1.03125 22.171875 0.984375 C 24.078125 0.921875 25.984375 -1.640625 27.015625 -3 C 28.546875 -4.84375 29.90625 -6.859375 31.265625 -8.828125 C 31.96875 -9.859375 33.4375 -11.65625 33.109375 -13.078125 Z M 13.5625 -16.671875 L 13.609375 -16.671875 C 13.5625 -16.609375 13.515625 -16.5 13.515625 -16.5 C 12.859375 -15.140625 12.53125 -13.5625 11.984375 -12.09375 C 11.546875 -11 11 -9.703125 10.890625 -8.5 C 10.890625 -9.75 11.28125 -11.21875 11.65625 -12.3125 C 12.09375 -13.609375 12.75 -14.875 13.296875 -16.125 C 13.515625 -16.5625 14.8125 -19.9375 14.59375 -20.8125 C 14.921875 -20.046875 13.9375 -17.484375 13.609375 -16.671875 L 13.609375 -16.71875 Z M 13.5625 -16.671875 "/></g></g></g></svg>